<svg xmlns="http://www.w3.org/2000/svg" viewBox="0 0 500 500"><g id="freepik--Shadow--inject-88"><ellipse id="freepik--path--inject-88" cx="250" cy="416.24" rx="193.89" ry="11.32" style="fill:#f5f5f5"></ellipse></g><g id="freepik--Character--inject-88"><rect x="155.99" y="74.93" width="188.03" height="339.14" rx="15.31" style="fill:#EE3855"></rect><rect x="159" y="100.45" width="182" height="288.47" rx="2.06" style="fill:#fff"></rect><path d="M341,162.67H187.35L159,102.51a2.06,2.06,0,0,1,2.06-2.06H338.94a2.06,2.06,0,0,1,2.06,2.06Z" style="fill:#f0f0f0"></path><polygon points="159 102.51 159 306.33 187.35 306.33 187.35 162.67 159 102.51" style="fill:#ebebeb"></polygon><path d="M159,315.17v71.68a2.07,2.07,0,0,0,2.06,2.07H338.94a2.07,2.07,0,0,0,2.06-2.07V198.72Z" style="fill:#fafafa"></path><circle cx="223.31" cy="262.91" r="45.44" transform="translate(-83.87 419.84) rotate(-76.72)" style="fill:#ebebeb"></circle><rect x="224.42" y="85.78" width="51.17" height="3.44" rx="1.72" style="fill:#fff"></rect><path d="M263.39,407.89H236.61a6,6,0,0,1,0-12.06h26.78a6,6,0,1,1,0,12.06Zm-26.78-11.06a5,5,0,0,0,0,10.06h26.78a5,5,0,1,0,0-10.06Z" style="fill:#fff"></path><rect x="298.4" y="108.17" width="32.44" height="14.67" rx="1.83" style="fill:#263238"></rect><path d="M307.52,117.72a6.83,6.83,0,0,1-4.38-2.07l-.14-.15.14-.15a5.69,5.69,0,0,1,8.76,0l.14.15-.14.15A6.8,6.8,0,0,1,307.52,117.72Zm-3.9-2.22a5.17,5.17,0,0,0,7.81,0,5.17,5.17,0,0,0-7.81,0Z" style="fill:#fff"></path><path d="M309.22,115.2a1.7,1.7,0,1,1-1.7-1.7A1.7,1.7,0,0,1,309.22,115.2Z" style="fill:#fff"></path><text transform="translate(315 117.67)" style="font-size:6px;fill:#fff;font-family:Arial-Black, Arial;font-weight:800">931</text><rect x="269.67" y="108.17" width="22.7" height="14.67" rx="1.53" style="fill:#EE3855"></rect><text transform="translate(273.35 117.67)" style="font-size:6px;fill:#fff;font-family:Arial-Black, Arial;font-weight:800">LIVE</text><circle cx="174.84" cy="115.5" r="10.01" transform="translate(-30.46 157.46) rotate(-45)" style="fill:#EE3855"></circle><path d="M183.11,115.5a8.27,8.27,0,0,1-15.53,3.94,8.17,8.17,0,0,1-1-3.94,8.27,8.27,0,0,1,16.53,0Z" style="fill:#fff"></path><path d="M180.68,118.84a6.64,6.64,0,0,1-11.67,0,10.5,10.5,0,0,1,11.67,0Z" style="fill:#EE3855;opacity:0.4"></path><path d="M177.8,113.4a3,3,0,1,1-3-3A3,3,0,0,1,177.8,113.4Z" style="fill:#EE3855;opacity:0.4"></path><path d="M224.59,286.49l-1.05,1.17-.94,1-1.88,2c-1.25,1.31-2.53,2.58-3.82,3.83-2.56,2.52-5.2,4.93-7.9,7.29a183,183,0,0,1-17.11,13.25q-4.53,3.06-9.3,5.88c-3.21,1.87-6.5,3.61-9.93,5.22a94,94,0,0,1-22.1,7.51c-1,.2-2,.4-3,.54l-1.52.22-.76.11-.38.06-.76.09a17.74,17.74,0,0,1-5.1-.18,17.47,17.47,0,0,1-4.38-1.39,20.42,20.42,0,0,1-5.58-3.84,28.62,28.62,0,0,1-5.19-6.86,51.07,51.07,0,0,1-2.82-5.9,88.91,88.91,0,0,1-3.61-10.85c-.93-3.53-1.72-7-2.42-10.46-1.33-6.92-2.34-13.75-3.06-20.6S110.75,261,110.63,254a7.45,7.45,0,0,1,14.57-2.3l0,.15c3.81,12.55,7.5,25.37,11.81,37.37,1.05,3,2.17,5.94,3.35,8.76a84.77,84.77,0,0,0,3.68,7.83,25.27,25.27,0,0,0,1.88,3c.56.76,1.17,1.27,1,1a4,4,0,0,0-1.45-1,8.1,8.1,0,0,0-2-.66,9.37,9.37,0,0,0-2.6-.12l-.16,0s-.15,0-.1,0l.12,0,.24-.06.47-.11.95-.23a19.09,19.09,0,0,0,1.9-.51,62.61,62.61,0,0,0,7.7-2.77,81.33,81.33,0,0,0,7.7-3.75,137,137,0,0,0,15.05-9.7c2.43-1.84,4.88-3.69,7.27-5.63s4.74-4,7.07-6,4.61-4.18,6.86-6.31c1.13-1.06,2.22-2.15,3.32-3.22l1.61-1.6,1.43-1.47.43-.45a14.91,14.91,0,0,1,21.8,20.34Z" style="fill:#ff8b7b"></path><path d="M217.44,257.09c-8.15.63-20.15,4.72-30.81,18,1.08,7.66,9.58,27.5,17.75,42.33C226.79,297.31,236.75,272.45,217.44,257.09Z" style="fill:#263238"></path><path d="M126.67,257.54l-.94-20.47-20.47,7.64s-.44,6.61,7.24,18.2Z" style="fill:#ff8b7b"></path><path d="M121.11,264.11c-7.79,0-11.23-2.48-11.41-2.61a.5.5,0,0,1-.1-.7.51.51,0,0,1,.7-.11s5.64,4,18.69,1.67a.49.49,0,0,1,.58.4.5.5,0,0,1-.4.58A45,45,0,0,1,121.11,264.11Z" style="fill:#EE3855"></path><path d="M110.19,261.92c-1,0-.26,2.56.29,3.42a.52.52,0,0,0,.44.25c2.07.07,14.86.27,17.77-4.17a8,8,0,0,0-.6-2.43.54.54,0,0,0-.79-.27C125.62,259.77,120.27,262.13,110.19,261.92Z" style="fill:#263238"></path><path d="M111.23,268.74a.5.5,0,0,1-.16-1c12.65-4.18,15.6-10.32,15.63-10.38a.51.51,0,0,1,.67-.25.49.49,0,0,1,.24.66c-.12.27-3.17,6.61-16.22,10.92Z" style="fill:#EE3855"></path><path d="M112.54,224.41l-6.42,3.36a7.25,7.25,0,0,0-3.53,8.65l2.67,8.29,20.47-7.64-3-8.61A7.24,7.24,0,0,0,112.54,224.41Z" style="fill:#ff8b7b"></path><path d="M297.34,388.92H195.18a1000.23,1000.23,0,0,1,.8-105.36,29.45,29.45,0,0,1,24.46-27.21c18.81-3.17,38.85-3.28,59.72-1.31a21.82,21.82,0,0,1,19.57,24.28C295.12,317.72,295.74,358.82,297.34,388.92Z" style="fill:#263238"></path><path d="M224.57,255.71a7.43,7.43,0,0,0-.23,3.48c.75,4.71,5.42,9.85,13.89,15.28l1.05.67,1.22-.27c27.37-6.11,34.36-18,34.64-18.48l1-1.7C258.21,253.22,240.94,253.35,224.57,255.71Z" style="fill:#fff"></path><path d="M267,204.63c-2.51,14.46-4.77,40.89,5.51,50.28,0,0-6.3,11.15-32.68,17-16.54-10.6-12.06-16.07-12.06-16.07,16-4.18,15.3-16.08,12.27-27.2Z" style="fill:#ff8b7b"></path><path d="M256,214.44l-16,14.21a45.78,45.78,0,0,1,1.55,7.92c6.11-1,14.39-7.93,14.91-14.37A21.76,21.76,0,0,0,256,214.44Z" style="opacity:0.2"></path><path d="M226.6,158.07c10.55-5,12.05,2.43,11.4,8.06s1,10.78,2.22,18-6.71,11.18-13.92,10.61S214.53,171.58,226.6,158.07Z" style="fill:#263238"></path><path d="M275.78,186.82c-5.3,18.8-7.45,30.07-19.2,37.77-17.66,11.57-39.29-2.26-39.71-22.26-.38-18,8.36-45.73,28.65-49.26C265.52,149.58,281.08,168,275.78,186.82Z" style="fill:#ff8b7b"></path><path d="M271.17,201c-11.67.83-10.34-6.67-7.67-11.67s3-10.41,4.5-17.53,10.33-8,16.83-4.8S287.33,192.83,271.17,201Z" style="fill:#263238"></path><path d="M272.83,169.18c-10.48,8.86-11.61-2.85-28.94-1.29,2.17-4,7.39-5.85,7.39-5.85s-24.93,2.4-32.14-6.82c3.08.67,9.31.72,11.22-.36-5.16-1-11.38-7.48-12.32-13,3.81,3.26,10.45,1.45,17.28.93-3.31-1.86-3.44-5-2.43-6.58,3.37,3.84,15.12,1.17,22.07,4.21a16.24,16.24,0,0,0-5.38-5.57s22.73,4.13,27.73,11.77a34.92,34.92,0,0,0-2.53-7.08s10.35,4.9,12,12.95c-.38-6,4.59-5.71,4.59-5.71s-3,3.33-2.19,9.61c4,.81,7.69,4.47,6.88,8.3-4.76-2.1-8-1.58-8-1.58s9.18,6.11,4.29,14.15c-.61-4.78-3.86-5.54-3.86-5.54s1.66,5.58-1.84,10C283.42,175.92,272.83,169.18,272.83,169.18Z" style="fill:#EE3855"></path><path d="M245.72,185.88c-.33,1.55-1.43,2.63-2.44,2.41s-1.56-1.65-1.23-3.21,1.43-2.63,2.45-2.41S246.06,184.33,245.72,185.88Z" style="fill:#263238"></path><path d="M228.19,182.08c-.34,1.55-1.43,2.63-2.45,2.41s-1.56-1.66-1.22-3.21,1.43-2.63,2.44-2.41S228.53,180.53,228.19,182.08Z" style="fill:#263238"></path><path d="M233.6,184.06s-5.47,8.18-10.29,11.66c2.19,3.16,7.11,3,7.11,3Z" style="fill:#ff5652"></path><path d="M234,204h0a13.3,13.3,0,0,0,11.91-2.88.46.46,0,0,0,0-.66.47.47,0,0,0-.66,0,12.62,12.62,0,0,1-11.06,2.63.47.47,0,0,0-.21.91Z" style="fill:#263238"></path><path d="M257.23,178.59a.92.92,0,0,0,.61-.06.94.94,0,0,0,.46-1.24,9.27,9.27,0,0,0-6.61-5.37.93.93,0,0,0-.27,1.85h0a7.36,7.36,0,0,1,5.18,4.31A1,1,0,0,0,257.23,178.59Z" style="fill:#263238"></path><path d="M221.43,169.12a.93.93,0,0,0,1,.21,7.42,7.42,0,0,1,6.71.56.94.94,0,0,0,1.31-.19,1,1,0,0,0-.2-1.31,9.24,9.24,0,0,0-8.47-.81.94.94,0,0,0-.55,1.2A1,1,0,0,0,221.43,169.12Z" style="fill:#263238"></path><path d="M298.22,264.47l2,1.84,1.84,1.76c1.22,1.17,2.39,2.37,3.57,3.57,2.36,2.39,4.64,4.84,6.9,7.32,4.52,5,8.82,10.17,13,15.59a165.58,165.58,0,0,1,11.65,17.39,109.33,109.33,0,0,1,5,9.85,66.27,66.27,0,0,1,3.95,11.35,48.24,48.24,0,0,1,1.16,6.64c.12,1.17.19,2.39.2,3.65a26.32,26.32,0,0,1-.35,4.81,25,25,0,0,1-3.67,9.35,29.62,29.62,0,0,1-5.5,6.22,46,46,0,0,1-11.09,6.87,80.69,80.69,0,0,1-10.56,3.74c-3.44,1-6.87,1.69-10.26,2.32s-6.76,1.08-10.12,1.44-6.71.59-10.05.75c-1.68.08-3.35.11-5,.13s-3.31,0-5.13-.06a7.43,7.43,0,0,1-1.86-14.59l.39-.11c11.74-3.3,24-6.87,34.29-11.62a56.27,56.27,0,0,0,7.07-3.8,19.63,19.63,0,0,0,4.76-3.85c.46-.55.66-1,.62-1.13s-.21.06-.35.42c0,.09-.05.17-.08.25s0-.09-.06-.23c0-.34-.1-.71-.19-1.13a26.12,26.12,0,0,0-.76-2.75,51.67,51.67,0,0,0-2.9-6.55c-1.19-2.3-2.61-4.65-4.14-7a167.07,167.07,0,0,0-10.4-14c-3.74-4.64-7.77-9.17-11.86-13.67-2.05-2.24-4.15-4.45-6.24-6.66l-3.16-3.27-1.57-1.61-1.49-1.5-.31-.31a14.91,14.91,0,0,1,20.75-21.41Z" style="fill:#ff8b7b"></path><path d="M278.27,254.87c8.15.63,20.15,4.71,30.81,18-1.08,7.67-9.58,27.5-17.75,42.34C268.92,295.08,259,270.23,278.27,254.87Z" style="fill:#263238"></path><path d="M279.54,364.37l-18.32-10.58.43,25s14.86,4.47,19.87-1.36Z" style="fill:#ff8b7b"></path><path d="M243.89,364.45l.45,7a7.72,7.72,0,0,0,7.62,7.24l9.69.14-.43-25-11.35,2.63A7.73,7.73,0,0,0,243.89,364.45Z" style="fill:#ff8b7b"></path><path d="M281.56,204a18.58,18.58,0,0,1-11,9c-6.25,1.82-9.45-3.75-7.78-9.69,1.51-5.34,6.58-12.73,12.88-12S284.37,198.7,281.56,204Z" style="fill:#ff8b7b"></path><path d="M174.12,231a6.88,6.88,0,0,1,9.32-2.82,6.89,6.89,0,1,1,12.15,6.49l-6.5,12.15L177,240.3A6.89,6.89,0,0,1,174.12,231Z" style="fill:#EE3855"></path><path d="M310.32,193.31a4.62,4.62,0,0,0-5.66,3.27,4.63,4.63,0,0,0-2.38,8.94l8.93,2.38L313.6,199A4.62,4.62,0,0,0,310.32,193.31Z" style="fill:#EE3855;opacity:0.5"></path><path d="M192.93,171.47a3.85,3.85,0,0,1,5.12,1.85,3.84,3.84,0,1,1,3.27,7l-7,3.28-3.28-7A3.86,3.86,0,0,1,192.93,171.47Z" style="fill:#EE3855;opacity:0.2"></path><path d="M308.7,149.54a2.74,2.74,0,0,0-3.64-1.35,2.75,2.75,0,1,0-5,2.3l2.29,5,5-2.29A2.75,2.75,0,0,0,308.7,149.54Z" style="fill:#EE3855"></path><path d="M316.06,253.37a2.74,2.74,0,0,0-3.64-1.35,2.75,2.75,0,1,0-5,2.3l2.29,5,5-2.29A2.75,2.75,0,0,0,316.06,253.37Z" style="fill:#EE3855"></path></g></svg>